<svg aria-hidden="true" style="position: absolute; width: 0; height: 0; overflow: hidden;" version="1.1" xmlns="http://www.w3.org/2000/svg" xmlns:xlink="http://www.w3.org/1999/xlink">
  <symbol viewBox="0 0 20 18" xmlns="http://www.w3.org/2000/svg" fill="none" id="icon-heart">
    <path d="M2.31804 2.31804C1.90017 2.7359 1.5687 3.23198 1.34255 3.77795C1.1164 4.32392 1 4.90909 1 5.50004C1 6.09099 1.1164 6.67616 1.34255 7.22213C1.5687 7.7681 1.90017 8.26417 2.31804 8.68204L10 16.364L17.682 8.68204C18.526 7.83812 19.0001 6.69352 19.0001 5.50004C19.0001 4.30656 18.526 3.16196 17.682 2.31804C16.8381 1.47412 15.6935 1.00001 14.5 1.00001C13.3066 1.00001 12.162 1.47412 11.318 2.31804L10 3.63604L8.68204 2.31804C8.26417 1.90017 7.7681 1.5687 7.22213 1.34255C6.67616 1.1164 6.09099 1 5.50004 1C4.90909 1 4.32392 1.1164 3.77795 1.34255C3.23198 1.5687 2.7359 1.90017 2.31804 2.31804Z" stroke="currentColor" stroke-width="2" stroke-linecap="round" stroke-linejoin="round"/>
  </symbol>
  <symbol viewBox="0 0 20 20" xmlns="http://www.w3.org/2000/svg" id="icon-search">
    <path d="M13.1032 11.9308H12.4857L12.2669 11.7198C12.7554 11.1523 13.1123 10.4839 13.3123 9.76233C13.5123 9.04078 13.5503 8.28396 13.4237 7.546C13.0563 5.37314 11.243 3.63798 9.0545 3.37224C8.2851 3.2749 7.50363 3.35486 6.76989 3.60601C6.03615 3.85715 5.36958 4.27282 4.8212 4.8212C4.27282 5.36958 3.85715 6.03615 3.60601 6.76989C3.35486 7.50363 3.2749 8.2851 3.37224 9.0545C3.63798 11.243 5.37314 13.0563 7.546 13.4237C8.28395 13.5503 9.04078 13.5123 9.76233 13.3123C10.4839 13.1123 11.1523 12.7554 11.7198 12.2669L11.9308 12.4857V13.1032L15.2526 16.425C15.5731 16.7455 16.0967 16.7455 16.4172 16.425C16.7377 16.1046 16.7377 15.5809 16.4172 15.2604L13.1032 11.9308ZM8.41358 11.9308C6.46739 11.9308 4.89636 10.3598 4.89636 8.41358C4.89636 6.46739 6.46739 4.89636 8.41358 4.89636C10.3598 4.89636 11.9308 6.46739 11.9308 8.41358C11.9308 10.3598 10.3598 11.9308 8.41358 11.9308Z" />
  </symbol>
</svg>
